<svg xmlns:xlink="http://www.w3.org/1999/xlink" width="24" height="24" viewBox="0 0 24 24" fill="none" xmlns="http://www.w3.org/2000/svg"><path d="M9.213 5.333h.021c2.438 0 3.386 2.129 3.078 3.975-.215 1.29-.781 2.133-1.287 2.68a.61.61 0 00-.162.496.52.52 0 00.24.38c.382.228 1.136.375 1.64.524 1.107.327 1.836.662 1.836 1.885v2.55c0 .418-.368.758-.821.758H4.696c-.453 0-.82-.34-.82-.759l-.001-2.549c0-1.223.781-1.558 1.889-1.885.504-.149 1.19-.296 1.572-.524a.52.52 0 00.24-.38.61.61 0 00-.162-.496c-.506-.547-1.058-1.385-1.273-2.675-.308-1.846.634-3.98 3.072-3.98z" fill="#737373"></path><path d="M20.125 16.005c0-.99-.587-1.26-1.48-1.525a11.404 11.404 0 00-.369-.1c-.348-.09-.73-.19-.954-.324a.42.42 0 01-.194-.308.494.494 0 01.13-.4c.358-.388.76-.96.96-1.795.028-.119.053-.244.075-.374.248-1.493-.512-3.215-2.478-3.215h-.017c-1.053 0-1.798.495-2.177 1.184a3.047 3.047 0 00-.363 1.58c.006.148.02.296.045.442.065.395.171.74.289 1.036.441.155.987.385 1.394.738.683.591.983 1.397.983 2.33v2.548c0 .274-.05.528-.138.76h3.473c.454 0 .82-.34.82-.76l.001-1.817z" fill="#737373"></path></svg>