<?xml version="1.0" encoding="utf-8"?>
<svg width="27" height="32" viewBox="0 0 27 32" xmlns="http://www.w3.org/2000/svg">
  <path fill="#00A82D" d="M 9.845 25.454 C 9.845 25.208 9.828 24.796 9.599 24.528 C 9.35 24.282 8.967 24.26 8.741 24.26 L 6.297 24.26 C 5.592 24.26 5.172 24.26 4.886 24.22 C 4.734 24.199 4.543 24.117 4.446 24.075 C 4.408 24.056 4.408 24.075 4.428 24.096 L 10 30.209 C 10.017 30.23 10.038 30.23 10.017 30.189 C 9.981 30.086 9.903 29.88 9.885 29.715 C 9.845 29.407 9.845 28.953 9.845 28.192 L 9.845 25.454 Z M 15.036 6.971 C 14.386 7.423 14.044 8.02 13.91 8.39 C 13.777 8.74 13.699 9.132 13.699 9.523 C 13.699 11.232 14.997 12.632 16.601 12.632 C 17.079 12.632 17.459 12.219 17.459 11.705 C 17.459 11.355 17.287 11.067 17.021 10.902 C 16.924 10.841 16.792 10.799 16.697 10.779 C 16.601 10.758 16.239 10.717 16.067 10.551 C 15.875 10.387 15.724 10.12 15.724 9.832 C 15.724 9.523 15.837 9.234 16.027 9.029 C 16.371 8.658 16.83 8.452 17.326 8.452 C 18.623 8.452 19.672 9.585 19.672 10.984 C 19.672 12.24 18.892 13.352 17.859 13.845 C 17.707 13.927 17.459 13.989 17.231 14.052 C 16.944 14.113 16.677 14.154 16.658 14.154 C 15.855 14.257 13.852 14.936 13.72 16.851 C 13.72 16.851 13.127 13.969 11.946 13.187 C 11.832 13.126 11.677 13.063 11.506 13.022 C 11.335 12.981 11.144 12.96 11.087 12.96 C 9.159 12.836 7.12 13.495 5.704 15.06 C 5.704 15.06 4.752 15.903 4.255 18.272 C 4.142 18.847 3.912 19.876 3.779 20.844 C 3.721 21.194 3.702 21.461 3.684 21.709 C 3.684 22.717 4.255 23.397 4.98 23.499 C 5 23.499 5.057 23.499 5.096 23.499 C 5.534 23.499 8.873 23.499 8.873 23.499 C 9.542 23.499 9.923 23.684 10.173 23.931 C 10.495 24.26 10.571 24.734 10.571 25.29 C 10.571 25.29 10.571 29.036 10.571 29.51 C 10.571 29.53 10.571 29.612 10.571 29.634 C 10.667 30.396 11.296 31.033 12.231 31.033 C 12.231 31.033 12.518 31.033 12.69 31.033 C 12.881 31.033 13.108 31.012 13.319 30.992 C 13.47 30.971 13.606 30.93 13.835 30.868 C 14.997 30.56 15.246 29.283 15.246 29.283 C 15.246 29.283 17.442 28.872 18.548 28.666 C 19.597 28.46 22.19 28.275 22.689 25.454 C 23.85 18.744 23.143 12.24 23.087 12.24 C 22.267 5.9 17.382 6.209 17.382 6.209 C 16.332 6.209 15.552 6.58 15.036 6.971 Z M 19.425 20.453 C 18.795 20.514 18.261 20.247 18.07 19.733 C 18.032 19.63 17.994 19.505 18.012 19.444 C 18.032 19.382 18.07 19.362 18.107 19.341 C 18.337 19.218 18.72 19.156 19.272 19.095 C 19.824 19.033 20.207 18.991 20.455 19.033 C 20.494 19.033 20.531 19.053 20.567 19.114 C 20.607 19.176 20.588 19.3 20.588 19.403 C 20.512 19.98 20.053 20.371 19.425 20.453 Z" style="" transform="matrix(0, 1, -1, 0, 32.137375, 5.102189)"/>
  <path fill="#00A82D" d="M 9.586 6.091 C 9.586 6.337 9.569 6.749 9.34 7.017 C 9.091 7.263 8.708 7.285 8.482 7.285 L 6.038 7.285 C 5.333 7.285 4.913 7.285 4.627 7.325 C 4.475 7.346 4.284 7.428 4.187 7.47 C 4.149 7.489 4.149 7.47 4.169 7.449 L 9.741 1.336 C 9.758 1.315 9.779 1.315 9.758 1.356 C 9.722 1.459 9.644 1.665 9.626 1.83 C 9.586 2.138 9.586 2.592 9.586 3.353 L 9.586 6.091 Z M 14.777 24.574 C 14.127 24.122 13.785 23.525 13.651 23.155 C 13.518 22.805 13.44 22.413 13.44 22.022 C 13.44 20.313 14.738 18.913 16.342 18.913 C 16.82 18.913 17.2 19.326 17.2 19.84 C 17.2 20.19 17.028 20.478 16.762 20.643 C 16.665 20.704 16.533 20.746 16.438 20.766 C 16.342 20.787 15.98 20.828 15.808 20.994 C 15.616 21.158 15.465 21.425 15.465 21.713 C 15.465 22.022 15.578 22.311 15.768 22.516 C 16.112 22.887 16.571 23.093 17.067 23.093 C 18.364 23.093 19.413 21.96 19.413 20.561 C 19.413 19.305 18.633 18.193 17.6 17.7 C 17.448 17.618 17.2 17.556 16.972 17.493 C 16.685 17.432 16.418 17.391 16.399 17.391 C 15.596 17.288 13.593 16.609 13.461 14.694 C 13.461 14.694 12.868 17.576 11.687 18.358 C 11.573 18.419 11.418 18.482 11.247 18.523 C 11.076 18.564 10.885 18.585 10.828 18.585 C 8.9 18.709 6.861 18.05 5.445 16.485 C 5.445 16.485 4.493 15.642 3.996 13.273 C 3.883 12.698 3.653 11.669 3.52 10.701 C 3.462 10.351 3.443 10.084 3.425 9.836 C 3.425 8.828 3.996 8.148 4.721 8.046 C 4.741 8.046 4.798 8.046 4.837 8.046 C 5.275 8.046 8.614 8.046 8.614 8.046 C 9.283 8.046 9.664 7.861 9.914 7.614 C 10.236 7.285 10.312 6.811 10.312 6.255 C 10.312 6.255 10.312 2.509 10.312 2.035 C 10.312 2.015 10.312 1.933 10.312 1.911 C 10.408 1.149 11.037 0.512 11.972 0.512 C 11.972 0.512 12.259 0.512 12.431 0.512 C 12.622 0.512 12.85 0.533 13.06 0.553 C 13.211 0.574 13.347 0.615 13.576 0.677 C 14.738 0.985 14.987 2.262 14.987 2.262 C 14.987 2.262 17.183 2.673 18.289 2.879 C 19.338 3.085 21.931 3.27 22.43 6.091 C 23.591 12.801 22.884 19.305 22.828 19.305 C 22.008 25.645 17.123 25.336 17.123 25.336 C 16.073 25.336 15.293 24.965 14.777 24.574 Z M 19.166 11.092 C 18.536 11.031 18.002 11.298 17.811 11.812 C 17.773 11.915 17.735 12.04 17.753 12.101 C 17.773 12.163 17.811 12.183 17.848 12.204 C 18.078 12.327 18.461 12.389 19.013 12.45 C 19.565 12.512 19.948 12.554 20.196 12.512 C 20.235 12.512 20.272 12.492 20.308 12.431 C 20.348 12.369 20.329 12.245 20.329 12.142 C 20.253 11.565 19.794 11.174 19.166 11.092 Z" style="" transform="matrix(0, -1, 1, 0, 0.333375, 26.183814)"/>
</svg>