<svg xmlns:xlink="http://www.w3.org/1999/xlink" width="24" height="24" viewBox="0 0 24 24" fill="none" xmlns="http://www.w3.org/2000/svg" class="V_kkIW9yAAUaOKy2Dm1v"><path d="M6.52 19.347l1.176-.946a.537.537 0 00.076-.742.538.538 0 00-.741-.076l-1.177.947a.538.538 0 00-.076.741.527.527 0 00.741.076zM6.476 16.898a.537.537 0 00.076-.741.538.538 0 00-.74-.076l-1.865 1.523a.537.537 0 00-.076.741.538.538 0 00.742.076l1.863-1.523zM5.257 15.396a.537.537 0 00.076-.741.538.538 0 00-.742-.076l-1.177.946a.538.538 0 00-.076.742.538.538 0 00.742.076l1.177-.947zM9.558 16.984l.517-.413c.425.752.766 1.574.982 2.42.082.342.494.49.789.303l2.08-1.437a2.605 2.605 0 001.06-2.8l-.1-.265 2.5-2.036a5.669 5.669 0 001.977-3.322l.473-2.594a1.023 1.023 0 00-.977-1.213l-2.619-.061a5.478 5.478 0 00-3.671 1.253l-2.5 2.036-.279-.136a2.637 2.637 0 00-2.955.467L5.02 10.915a.514.514 0 00.128.837c.793.382 1.532.87 2.172 1.463l-.516.412c-.193.162-.216.428-.056.643l2.18 2.647a.443.443 0 00.63.067zm5.054-6.336l-.627-.747a.622.622 0 01.064-.854l.747-.627a.622.622 0 01.854.064l.627.747c.212.253.18.63-.064.854l-.747.627a.601.601 0 01-.854-.063z" fill="#737373"></path></svg>