<svg xmlns:xlink="http://www.w3.org/1999/xlink" width="24" height="24" fill="none" xmlns="http://www.w3.org/2000/svg"><path d="M16.298 17.93l.494-8.846H7.208l.514 8.85c.05.88.78 1.57 1.664 1.57h5.248c.885 0 1.615-.692 1.664-1.575z" fill="#737373"></path><path fill-rule="evenodd" clip-rule="evenodd" d="M11.167 4.087a2.292 2.292 0 00-2.292 2.291v.205H5.75a.625.625 0 100 1.25h12.5a.625.625 0 100-1.25h-3.125v-.205a2.292 2.292 0 00-2.292-2.291h-1.666zm2.708 2.496v-.205c0-.575-.466-1.041-1.042-1.041h-1.666c-.576 0-1.042.466-1.042 1.041v.205h3.75z" fill="#737373"></path></svg>